<?xml version="1.0" encoding="UTF-8" standalone="no"?>
<!-- Created with Inkscape (http://www.inkscape.org/) -->

<svg
   width="318.22757mm"
   height="63.279446mm"
   viewBox="0 0 318.22757 63.279446"
   version="1.1"
   id="svg1"
   xml:space="preserve"
   xmlns="http://www.w3.org/2000/svg"
   xmlns:svg="http://www.w3.org/2000/svg"><defs
     id="defs1" /><g
     id="layer1"
     transform="translate(-328.44145,-85.220699)"><path
       id="path1"
       style="fill:#d7c2a0"
       d="m 499.35712,85.238725 c -2.09806,0.02651 -4.96142,0.0816 -8.08426,0.159163 -6.24569,0.15516 -19.17182,0.263312 -28.72435,0.240812 l -17.36793,-0.04082 -0.54209,0.688847 c -0.29802,0.378859 -0.68,1.366282 -0.84904,2.194181 -0.55384,2.712477 -2.10556,9.137805 -2.68304,11.110433 -0.91415,3.122669 -2.91719,2.846989 19.84168,2.729029 22.21364,-0.11514 20.34495,-0.31994 20.08456,2.20297 -0.0812,0.78671 -0.3901,1.97928 -0.68678,2.64996 -0.91221,2.06215 -0.33346,1.99436 -17.15554,1.99936 -8.11745,0.002 -14.89013,0.0915 -15.05024,0.19844 -0.52475,0.35038 -0.99304,1.48462 -1.44591,3.5016 -0.24505,1.0914 -0.8234,3.57618 -1.28519,5.52162 -0.52918,2.22938 -0.81038,4.03914 -0.76068,4.8948 l 0.0791,1.35754 14.2875,0.0563 c 7.85812,0.031 14.90385,0.0611 15.65744,0.0662 1.72888,0.0122 2.20193,0.44646 2.20193,2.02158 0,1.41258 -0.46036,2.5582 -1.53065,3.80907 l -0.7922,0.92604 -19.77864,0.13229 -19.77812,0.1323 -0.48163,0.66145 c -0.28364,0.38964 -0.698,1.91182 -1.0082,3.70417 -0.28963,1.67349 -0.83487,4.47146 -1.21182,6.21771 -0.97617,4.52219 -1.07719,5.43119 -0.63407,5.71179 0.48818,0.30909 43.94258,0.29837 47.86116,-0.0119 4.99988,-0.39587 8.32344,-1.79709 11.43445,-4.81986 1.757,-1.70717 2.71476,-3.56514 3.73724,-7.25176 2.44841,-8.8279 2.75114,-13.28954 1.09554,-16.1401 -0.60448,-1.04076 -2.14442,-2.57767 -3.18172,-3.17551 -0.56405,-0.32509 -0.72166,-0.1927 2.35696,-1.98438 2.09917,-1.22166 4.3308,-3.46369 5.0829,-5.10666 0.34056,-0.74397 0.85516,-2.54352 1.1436,-3.99872 0.28844,-1.4552 0.77587,-3.77693 1.08313,-5.15938 0.30727,-1.382439 0.72931,-3.466035 0.93793,-4.630204 0.20861,-1.164169 0.48826,-2.644316 0.62115,-3.289205 0.23691,-1.149709 0.15552,-1.87017 -0.21084,-1.87017 -0.10146,0 -0.75657,0.386956 -1.45624,0.859896 -0.69967,0.472939 -1.83037,1.218073 -2.51251,1.655713 -0.68213,0.437639 -1.71082,1.15843 -2.28565,1.601969 -0.57484,0.44353 -1.64021,1.177322 -2.36781,1.630392 -2.93984,1.830588 -4.10104,2.054858 -4.10104,0.792199 0,-0.711569 0.61585,-1.325949 3.57187,-3.563607 1.16417,-0.881249 2.77152,-2.281075 3.57188,-3.110404 0.80037,-0.829339 2.25887,-2.155418 3.24114,-2.947107 1.66432,-1.341409 2.10004,-1.985254 1.56632,-2.315104 -0.0604,-0.03735 -1.3932,-0.03943 -3.49126,-0.01292 z m -157.09022,0.856676 -6.03183,27.226239 19.36441,-11.03744 43.38828,5e-5 3.52851,-16.188849 z m 91.16556,-0.02779 c -2.16102,-0.03129 -5.59653,-0.02086 -10.83086,0.02429 -7.51243,0.06482 -13.80796,0.210051 -13.98985,0.322461 -0.18189,0.112419 -0.48741,1.081211 -0.67954,2.15284 -0.43581,2.430837 -1.36366,6.714476 -1.68259,7.769035 -0.70408,2.328097 -1.11603,4.961973 -0.82165,5.253943 0.20689,0.20519 1.50981,0.2796 4.05918,0.231 2.12158,-0.0404 3.92535,0.0405 4.14703,0.18603 0.33831,0.22204 0.23742,0.88719 -0.73432,4.83381 -0.61977,2.5171 -1.89379,8.14834 -2.83083,12.51397 -0.93704,4.36561 -1.93399,8.94953 -2.21537,10.18646 -0.28137,1.23692 -0.88953,4.09442 -1.35134,6.35 -0.46181,2.25556 -1.11652,5.3512 -1.45521,6.87916 -1.19894,5.40894 -1.21191,5.35093 1.23972,5.57796 3.20103,0.29644 16.17359,0.12391 16.78967,-0.22324 0.67317,-0.37931 1.01133,-1.30057 1.53376,-4.17753 0.49502,-2.72601 1.02469,-5.23755 2.03347,-9.64385 1.62433,-7.0951 3.098,-14.05323 6.19187,-29.23646 0.50409,-2.47386 1.02895,-4.85511 1.16633,-5.29167 0.13738,-0.43656 0.42696,-1.746248 0.64389,-2.910417 0.42934,-2.303997 0.93827,-4.598602 1.78232,-8.035168 0.45369,-1.847218 0.48487,-2.267646 0.1881,-2.535246 -0.13634,-0.122915 -1.02276,-0.196085 -3.18378,-0.227376 z m -76.57557,18.860429 -21.49025,12.31347 -6.92519,31.25837 h 19.74763 l 4.59766,-22.53299 h 36.51488 l 3.15866,-15.82178 -36.63133,-0.0509 0.4625,-2.32337 z" /><g
       id="g4"
       transform="matrix(1.4255491,0,0,1.4255491,-206.5244,-36.265596)"><path
         style="font-size:21.7613px;font-family:'Eras Bold ITC';-inkscape-font-specification:'Eras Bold ITC';text-align:end;text-anchor:end;fill:#d7c2a0;stroke-width:2.84703;stroke-linejoin:round"
         d="m 512.77392,91.542964 q 1.45571,0.02125 2.77329,0.02125 2.25264,0 3.52771,-0.02125 -0.13813,1.455712 -0.28689,4.122746 -0.13813,2.667034 -0.17001,4.027116 -1.22195,0.223138 -2.0295,0.318764 -0.79692,0.10626 -1.92323,0.18064 -1.12632,0.085 -2.00825,0.085 -1.44509,0 -2.83704,-0.23377 -1.39196,-0.233762 -2.49703,-0.754419 -1.09444,-0.520656 -1.82761,-1.413209 -0.73317,-0.892553 -1.13694,-2.114501 -0.39315,-1.221948 -0.39315,-2.528901 0,-2.157004 1.07319,-4.005864 1.07319,-1.848861 3.08143,-2.92205 2.01887,-1.083814 5.20657,-1.083814 2.32701,0 5.15343,0.563158 0,1.551343 0.13813,3.453331 -0.76504,-0.255015 -1.2432,-0.382522 -0.46753,-0.138134 -1.10506,-0.24439 -0.62692,-0.116882 -1.2007,-0.17001 -0.56316,-0.05313 -1.00944,-0.05313 -1.16882,0 -2.21013,0.34002 -1.04131,0.329395 -1.79573,1.030686 -0.74379,0.690667 -1.11569,1.657599 -0.3719,0.966933 -0.3719,2.040122 0,1.094441 0.42503,1.955117 0.42502,0.850051 1.34945,1.296327 0.92443,0.446277 2.06137,0.446277 0.94569,0 2.072,-0.276267 l 0.11689,-2.305762 q -0.69067,-0.03188 -0.81818,-0.03188 l -1.12632,0.01063 0.0744,-1.306954 q 0.0106,-0.212512 0.0319,-0.605661 0.0213,-0.403774 0.0213,-1.09444 z m 6.54539,8.458006 0.88193,-1.530092 5.49345,-10.349368 0.58441,-1.158194 q 0.25502,-0.510031 0.71192,-1.466338 1.87011,0.02125 2.73079,0.02125 1.49821,0 2.77329,-0.02125 l 1.55134,4.43089 3.15581,8.521758 0.61629,1.551344 q -1.83823,-0.02125 -2.23138,-0.02125 -0.89255,0 -2.62453,0.02125 -0.46753,-1.753231 -1.34946,-4.122747 h -5.35532 q -0.92443,1.870111 -1.91261,4.122747 -1.97637,-0.02125 -2.42265,-0.02125 -0.80755,0 -2.60328,0.02125 z m 8.22424,-7.214807 h 3.30458 q -1.23258,-3.750849 -1.34946,-4.133372 -0.70129,1.561969 -1.19007,2.560778 z m 11.14629,7.214807 0.26564,-2.146379 0.65879,-7.44857 0.3294,-4.909043 q 1.95512,0.02125 3.07081,0.02125 0.92443,0 2.82642,-0.02125 0.13813,0.913805 0.23376,1.391958 0.0956,0.467528 0.46753,1.848861 0.38252,1.370706 0.60566,2.380142 0.23376,0.998809 0.69066,3.43208 0.46753,-1.668225 0.85006,-2.868922 0.38252,-1.200696 0.9563,-2.730788 0.57379,-1.530091 0.72255,-1.997619 0.15938,-0.478154 0.42502,-1.455712 1.59385,0.02125 3.12394,0.02125 1.04131,0 2.89017,-0.02125 -0.20189,3.580839 -0.26564,6.152242 -0.13813,5.036551 -0.13813,6.927914 0,0.393148 0.0213,1.423836 -1.40259,-0.02125 -1.96574,-0.02125 -0.81818,0 -2.00825,0.02125 0.085,-0.956308 0.21251,-4.547773 0.12751,-3.60209 0.12751,-4.600899 0,-0.435651 -0.0213,-1.211323 l -1.39196,4.324634 -1.99762,6.035361 q -1.38133,-0.02125 -1.90199,-0.02125 -0.65879,0 -2.01887,0.02125 l -1.30695,-5.8441 -0.76505,-3.113311 q -0.0425,-0.180636 -0.0956,-0.446276 -0.0531,-0.265641 -0.17001,-0.935056 l -0.26564,2.9433 -0.35064,6.035361 -0.0319,1.360082 q -1.46634,-0.02125 -1.87011,-0.02125 -0.55253,0 -1.91262,0.02125 z m 20.27372,0 q 0.26564,-2.741415 0.38252,-4.590275 0.12751,-1.84886 0.24439,-4.909043 0.12751,-3.070808 0.12751,-4.069618 l -0.0106,-0.935056 q 2.50765,0.02125 6.06724,0.02125 3.28332,0 5.79097,-0.02125 l -0.0213,0.350646 q -0.0106,0.127508 -0.0531,0.92443 l -0.0638,1.158194 q -0.0213,0.371898 -0.0213,0.75442 -2.05074,-0.085 -3.4427,-0.085 -1.53009,0 -2.072,0.01063 -0.53128,0 -1.66823,0.0425 l -0.1275,2.433271 q 1.25382,0.03188 2.92205,0.03188 0.59503,0 3.16644,-0.07438 -0.10626,1.360081 -0.20189,3.240819 -1.83824,-0.02125 -2.82642,-0.02125 -1.46634,0 -3.28332,0.07438 l -0.12751,2.582029 h 1.22195 q 0.54191,0 2.24201,-0.03188 l 2.1995,-0.05313 q 0.48878,-0.01063 1.63635,-0.085 -0.12751,1.572594 -0.21251,3.251443 -2.59266,-0.02125 -5.68472,-0.02125 l -4.67527,0.01062 z m 14.33397,0 q 0.20189,-1.870113 0.31877,-3.368327 0.11689,-1.498215 0.20189,-3.474583 0.085,-1.976368 0.12751,-4.165248 0.0425,-2.199507 0.0425,-3.495834 1.3282,0.03188 2.14638,0.03188 0.85005,0 2.072,-0.0425 1.22195,-0.05313 2.38014,-0.05313 1.36008,0 2.42264,0.106257 0.79693,0.07438 1.44509,0.308143 0.65879,0.233764 1.10507,0.573784 0.44627,0.329395 0.74379,0.743795 0.29752,0.414399 0.4569,0.977558 0.17001,0.552533 0.17001,1.190071 0,0.711918 -0.18063,1.33883 -0.18064,0.616287 -0.57379,1.16882 -0.38252,0.541907 -0.97756,0.945681 -0.58441,0.393149 -1.64697,0.807548 l 0.55253,1.349456 q 0.23377,0.563159 0.49941,1.147568 l 1.42383,3.113311 q 0.0956,0.201887 0.34002,0.79692 -1.75323,-0.02125 -2.35889,-0.02125 -0.76504,0 -2.50765,0.02125 -0.17001,-0.55253 -0.61628,-2.050744 -0.18064,-0.626913 -0.30815,-0.966933 -0.25501,-0.75442 -0.75442,-2.114501 l -1.09444,-3.007055 q 0.57379,0.106256 1.12632,0.106256 0.77567,0 1.40258,-0.233764 0.63754,-0.233764 0.95631,-0.722543 0.3294,-0.488779 0.3294,-1.030686 0,-0.456903 -0.24439,-0.796923 -0.24439,-0.350646 -0.77567,-0.520656 -0.52066,-0.17001 -1.6151,-0.17001 -0.3719,0 -0.77567,0.02125 -0.39315,0.01063 -0.92443,0.02125 -0.13814,2.178256 -0.24439,5.312818 -0.10626,3.134562 -0.13814,6.152241 -1.77448,-0.02125 -2.30576,-0.02125 -0.61629,0 -2.22076,0.02125 z m 15.14154,-0.223139 q -0.13814,-2.263261 -0.31877,-3.623342 1.19007,0.531282 2.1145,0.743795 0.93505,0.201887 1.63635,0.201887 0.92443,0 1.46633,-0.265641 0.55254,-0.276267 0.55254,-0.807548 0,-0.180636 -0.0531,-0.340021 -0.0531,-0.17001 -0.20189,-0.371897 -0.14876,-0.212512 -0.42502,-0.456902 l -1.99762,-1.742604 q -0.7013,-0.595036 -0.97756,-0.860677 -0.56316,-0.541907 -0.88193,-1.009435 -0.30814,-0.467528 -0.4569,-0.945681 -0.13814,-0.488779 -0.13814,-1.030687 0,-0.648163 0.22314,-1.26445 0.23377,-0.626913 0.69067,-1.16882 0.4569,-0.541907 1.21132,-0.935056 0.75442,-0.393148 1.6151,-0.531282 0.86067,-0.148758 1.77448,-0.148758 1.79573,0 3.91023,0.414399 0.0319,0.733169 0.0744,1.349456 0.0425,0.605661 0.20189,2.135752 -0.97756,-0.393148 -1.78511,-0.541907 -0.80755,-0.159385 -1.39196,-0.159385 -0.8288,0 -1.38133,0.308144 -0.54191,0.308143 -0.54191,0.765046 0,0.212512 0.085,0.414399 0.085,0.201887 0.31877,0.478154 0.23376,0.265641 0.61628,0.595035 0.38253,0.318769 1.2007,0.956307 l 0.76505,0.605662 q 0.34002,0.276266 0.73317,0.669415 0.39314,0.393148 0.68004,0.775671 0.28689,0.382523 0.43565,0.701292 0.15938,0.318769 0.23376,0.648163 0.0744,0.318769 0.0744,0.690667 0,0.956307 -0.4569,1.827609 -0.4569,0.860676 -1.29633,1.423835 -0.83942,0.552533 -1.84886,0.775674 -0.99881,0.22314 -2.1145,0.22314 -1.72135,0 -4.34588,-0.499409 z"
         id="text2"
         aria-label="GAMERS" /><path
         style="font-size:35.5118px;font-family:'Eras Bold ITC';-inkscape-font-specification:'Eras Bold ITC';text-align:end;text-anchor:end;fill:#d7c2a0;stroke-width:4.64601;stroke-linejoin:round"
         d="m 524.91167,123.38515 q -0.20808,1.02305 -0.50286,2.86106 -0.29477,1.82067 -0.39881,2.82638 -3.71071,0.53753 -6.62378,0.53753 -2.80904,0 -5.23661,-0.69359 -2.41022,-0.71093 -4.43897,-2.30619 -2.01141,-1.61259 -2.8784,-3.78006 -0.86699,-2.16747 -0.86699,-4.85513 0,-3.13849 1.16177,-5.63542 1.1791,-2.51426 3.36391,-4.17888 2.20214,-1.68195 4.82045,-2.39288 2.6183,-0.72827 5.41,-0.72827 2.56628,0 6.34634,0.65891 l 0.0347,1.45654 q 0.0347,0.95369 0.10404,2.09811 l 0.12138,1.97673 q -2.02875,-0.48551 -3.29455,-0.65891 -1.24846,-0.1734 -2.32353,-0.1734 -2.34086,0 -4.21356,0.93635 -1.87269,0.93634 -2.94775,2.72234 -1.07507,1.78599 -1.07507,3.95346 0,1.97673 0.90167,3.39859 0.90167,1.40452 2.42756,2.18481 1.54324,0.76295 3.79741,0.76295 1.23112,0 2.67032,-0.19074 1.45654,-0.20808 3.64135,-0.78029 z m 3.13849,5.77414 q 0.43349,-4.09218 0.62423,-6.67581 0.36413,-4.71641 0.53753,-9.36346 0.19074,-4.66439 0.19074,-7.62949 2.3582,0.0347 4.17888,0.0347 1.23112,0 3.53731,-0.0347 l -0.41616,6.27699 -0.52019,9.8143 -0.0694,2.41022 q 2.98244,0.052 3.8841,0.052 4.56036,0 6.90122,-0.12138 l -0.38147,5.23661 q -4.56036,-0.0347 -8.68721,-0.0347 -5.5834,0 -9.77962,0.0347 z m 22.02148,-23.66876 q 2.705,0.0347 3.81474,0.0347 1.38718,0 3.69337,-0.0347 l -0.5202,7.3694 q -0.15605,2.08077 -0.24275,3.90144 -0.0694,1.82067 -0.0694,2.51426 0,1.31782 0.19074,2.20215 0.19073,0.88433 0.69359,1.50856 0.50285,0.60689 1.38718,0.919 0.90166,0.31212 1.87269,0.31212 0.83231,0 1.56057,-0.19074 0.57222,-0.15606 1.02305,-0.43349 0.39881,-0.2601 0.69359,-0.60689 0.36413,-0.41616 0.64157,-1.04039 0.27744,-0.58955 0.41615,-1.5259 0.15606,-0.95368 0.41616,-4.33493 0.22541,-2.8784 0.34679,-5.27128 0.10404,-2.32353 0.19074,-5.32331 2.6183,0.0347 4.12686,0.0347 l 3.51997,-0.0347 -0.84965,12.31122 q -0.0173,0.3468 -0.0173,0.57221 -0.0694,3.60667 -0.45083,5.09789 -0.36414,1.47388 -1.23112,2.56628 -0.86699,1.09241 -2.53161,1.97673 -1.66461,0.86699 -3.78006,1.23113 -2.11545,0.36413 -4.28292,0.36413 -1.94205,0 -3.74538,-0.27744 -1.66462,-0.27743 -2.99978,-0.79762 -1.33516,-0.53754 -2.32353,-1.24847 -0.90166,-0.65891 -1.38718,-1.33516 -0.48551,-0.69359 -0.76294,-1.64727 -0.31212,-1.07507 -0.31212,-2.30619 0,-0.41615 0.0347,-1.24846 0.0347,-0.84965 0.15606,-2.42756 l 0.22541,-2.77436 q 0.0867,-1.09241 0.19074,-3.20786 z m 26.63384,23.66876 q 0.36414,-3.81475 0.48552,-5.99956 0.17339,-2.98243 0.32945,-8.18436 0.1734,-5.20192 0.1734,-7.33471 0,-0.76295 -0.0173,-2.15013 2.30619,0.052 3.65869,0.052 1.89003,0 4.40429,-0.0694 2.51426,-0.0867 4.3176,-0.0867 2.16747,0 3.08647,0.12137 1.21379,0.15606 2.11545,0.55488 0.91901,0.39881 1.5259,0.98836 0.67625,0.69359 1.05772,1.66462 0.4335,1.10974 0.4335,2.37554 0,0.98837 -0.2601,1.89003 -0.24275,0.90167 -0.71093,1.6126 -0.45083,0.69359 -1.02304,1.16176 -0.57221,0.46818 -1.12709,0.72827 -0.53753,0.2601 -1.45654,0.52019 0.91901,0.15606 1.47388,0.36414 0.55488,0.19074 1.17911,0.64157 0.64157,0.43349 1.14442,1.12708 0.50285,0.69359 0.74561,1.56058 0.26009,0.84965 0.26009,1.80333 0,1.31782 -0.43349,2.47959 -0.43349,1.16176 -1.21378,1.99407 -0.65891,0.71093 -1.71664,1.21378 -1.05772,0.50285 -2.16746,0.69359 -0.90167,0.13872 -3.29456,0.20808 -2.37554,0.0694 -5.04586,0.0694 l -4.56036,-0.0173 z m 7.73353,-14.44401 h 2.46224 q 1.21379,0 1.71664,-0.052 0.52019,-0.0694 1.0057,-0.22542 0.48552,-0.15606 0.83231,-0.52019 0.36414,-0.36413 0.50286,-0.81497 0.15605,-0.45083 0.15605,-0.90166 0,-0.64158 -0.31211,-1.14443 -0.29478,-0.50285 -0.97103,-0.74561 -0.67625,-0.24275 -2.06343,-0.24275 h -3.12115 z m -0.39881,9.69292 h 3.32923 q 1.31782,0 1.94205,-0.15606 0.76295,-0.19074 1.16176,-0.50285 0.39882,-0.31212 0.62423,-0.84965 0.24276,-0.53753 0.24276,-1.19644 0,-0.57222 -0.19074,-1.00571 -0.19073,-0.43349 -0.57221,-0.72827 -0.38147,-0.29477 -0.93635,-0.41615 -0.55487,-0.13872 -1.73397,-0.13872 h -3.65869 z"
         id="text2-4"
         aria-label="CLUB" /></g></g></svg>
