<?xml version="1.0" encoding="UTF-8" standalone="no"?>
<!-- Created with Inkscape (http://www.inkscape.org/) -->

<svg
   width="151.22609mm"
   height="151.22607mm"
   viewBox="0 0 151.22609 151.22608"
   version="1.1"
   id="svg1"
   xml:space="preserve"
   sodipodi:docname="logo.svg"
   xmlns:inkscape="http://www.inkscape.org/namespaces/inkscape"
   xmlns:sodipodi="http://sodipodi.sourceforge.net/DTD/sodipodi-0.dtd"
   xmlns="http://www.w3.org/2000/svg"
   xmlns:svg="http://www.w3.org/2000/svg"><sodipodi:namedview
     id="namedview1"
     pagecolor="#ffffff"
     bordercolor="#000000"
     borderopacity="0.25"
     inkscape:showpageshadow="2"
     inkscape:pageopacity="0.0"
     inkscape:pagecheckerboard="0"
     inkscape:deskcolor="#d1d1d1"
     inkscape:document-units="mm" /><defs
     id="defs1" /><rect
     style="fill:#d7c2a0;fill-opacity:1;stroke-width:1;stroke-linecap:round;stroke-linejoin:round"
     id="rect1"
     width="151.22609"
     height="151.22609"
     x="1.7698608e-06"
     y="2.6076591e-06"
     rx="75.613045"
     ry="75.613045" /><path
     id="path1-7"
     style="fill:#000000;stroke-width:0.767562"
     d="m 139.43871,51.341246 c -1.61039,0.0203 -3.8082,0.0626 -6.20517,0.12217 -4.79395,0.11909 -14.71556,0.20211 -22.04772,0.18483 l -13.330961,-0.0313 -0.41609,0.52873 c -0.22875,0.2908 -0.52194,1.04871 -0.65169,1.68417 -0.42511,2.082 -1.61615,7.01383 -2.0594,8.52795 -0.70167,2.39684 -2.23913,2.18524 15.229721,2.0947 17.05034,-0.0884 15.61601,-0.24558 15.41614,1.69091 -0.0623,0.60385 -0.29942,1.51922 -0.52714,2.03401 -0.70018,1.58283 -0.25595,1.5308 -13.16794,1.53463 -6.23065,0.002 -11.4291,0.0702 -11.552,0.15232 -0.402771,0.26894 -0.762221,1.13954 -1.109821,2.6877 -0.18809,0.83771 -0.63201,2.74494 -0.98647,4.23818 -0.40617,1.71119 -0.62201,3.10029 -0.58386,3.75706 l 0.0607,1.042 10.966541,0.0432 c 6.0316,0.0238 11.43963,0.0469 12.01806,0.0508 1.32702,0.009 1.69012,0.34268 1.69012,1.55168 0,1.08425 -0.35336,1.96358 -1.17487,2.9237 l -0.60806,0.7108 -15.18134,0.10154 -15.180931,0.10154 -0.36968,0.50771 c -0.21771,0.29907 -0.53576,1.46744 -0.77386,2.84318 -0.22231,1.28451 -0.64081,3.43212 -0.93015,4.77248 -0.74927,3.47106 -0.82681,4.16877 -0.48668,4.38415 0.3747,0.23725 33.728651,0.22902 36.736411,-0.009 3.83771,-0.30386 6.38875,-1.37938 8.77665,-3.69955 1.3486,-1.31035 2.08374,-2.73646 2.86856,-5.56617 1.87931,-6.77596 2.11167,-10.20055 0.84089,-12.38853 -0.46397,-0.79885 -1.64597,-1.97852 -2.44216,-2.4374 -0.43295,-0.24953 -0.55392,-0.14791 1.80911,-1.52314 1.61124,-0.9377 3.32416,-2.65859 3.90144,-3.91967 0.2614,-0.57105 0.65639,-1.95231 0.87778,-3.06927 0.2214,-1.11696 0.59553,-2.89903 0.83137,-3.96014 0.23585,-1.06111 0.55979,-2.6604 0.71992,-3.55397 0.16012,-0.89357 0.37477,-2.02968 0.47677,-2.52467 0.18185,-0.88248 0.11938,-1.43547 -0.16183,-1.43547 -0.0779,0 -0.58071,0.29701 -1.11775,0.66002 -0.53704,0.36301 -1.40493,0.93495 -1.92851,1.27086 -0.52358,0.33592 -1.31316,0.88917 -1.75438,1.22961 -0.44122,0.34044 -1.25896,0.90367 -1.81744,1.25143 -2.25651,1.40509 -3.1478,1.57723 -3.1478,0.60806 0,-0.54617 0.4727,-1.01775 2.74163,-2.73529 0.89357,-0.67641 2.12731,-1.75086 2.74164,-2.38742 0.61433,-0.63657 1.73382,-1.65442 2.48778,-2.26209 1.27746,-1.02962 1.61191,-1.52381 1.20224,-1.77699 -0.0464,-0.0287 -1.06936,-0.0302 -2.67976,-0.01 z m -120.576491,0.65755 -4.6298,20.89783 14.86338,-8.47192 33.3032,4e-5 2.70835,-12.42595 z m 69.97522,-0.0213 c -1.65871,-0.024 -4.29568,-0.016 -8.31335,0.0187 -5.76626,0.0497 -10.59847,0.16123 -10.73808,0.24751 -0.13961,0.0863 -0.37412,0.8299 -0.52159,1.65244 -0.33451,1.86582 -1.04669,5.15378 -1.29149,5.96322 -0.54043,1.78695 -0.85662,3.80862 -0.63067,4.03273 0.1588,0.15749 1.15887,0.21461 3.11567,0.1773 1.62845,-0.031 3.01295,0.0311 3.18311,0.14279 0.25967,0.17043 0.18223,0.68098 -0.56364,3.71025 -0.47571,1.93203 -1.4536,6.25436 -2.17284,9.60525 -0.71923,3.35088 -1.48445,6.86932 -1.70043,7.81874 -0.21597,0.94941 -0.68277,3.14272 -1.03724,4.87402 -0.35447,1.73128 -0.857,4.10738 -1.11696,5.28018 -0.92026,4.1517 -0.93022,4.10717 0.95156,4.28143 2.45699,0.227544 12.41423,0.0951 12.88711,-0.17135 0.5167,-0.29114 0.77626,-0.99827 1.17726,-3.20651 0.37996,-2.09238 0.78651,-4.02015 1.56081,-7.40226 1.24678,-5.44593 2.37791,-10.78672 4.75265,-22.44079 0.38692,-1.89884 0.78978,-3.7266 0.89523,-4.06169 0.10545,-0.33509 0.32772,-1.34035 0.49422,-2.23393 0.32955,-1.76845 0.72018,-3.52971 1.36804,-6.16748 0.34824,-1.41786 0.37217,-1.74056 0.14438,-1.94596 -0.10465,-0.0943 -0.78503,-0.15051 -2.44375,-0.17453 z m -58.7765,14.47655 -16.4951,9.45135 -5.3155099,23.99274 H 23.407859 l 3.52899,-17.29546 h 28.02744 l 2.42446,-12.1442 -28.11681,-0.0391 0.35499,-1.78333 z" /></svg>
